<?xml version="1.0" standalone="no"?>
<!DOCTYPE svg PUBLIC "-//W3C//DTD SVG 20010904//EN"
 "http://www.w3.org/TR/2001/REC-SVG-20010904/DTD/svg10.dtd">
<svg version="1.0" xmlns="http://www.w3.org/2000/svg" width="919" height="630" viewBox="0 0 919 630">
	<linearGradient id="linear-gradient" x1="0%" y1="0%" x2="30%" y2="100%">
		<stop offset="20%" stop-color="#ff8f5a"/>
		<stop offset="100%" stop-color="#ff2f96"/>
	</linearGradient>	
	<path transform="translate(0,630) scale(0.1,-0.1)" fill="url(#linear-gradient)" 
		d="M5410 6289 c-827 -37 -1751 -359 -2505 -874 -263 -179 -558 -413
		-820 -650 -196 -176 -699 -686 -880 -890 -579 -654 -950 -1219 -1110 -1689
		-66 -194 -86 -307 -86 -476 1 -215 58 -402 177 -582 404 -607 1681 -1014 3474
		-1108 263 -14 950 -14 1195 0 459 25 879 74 1174 135 64 14 161 34 215 45 327
		69 759 221 1076 380 645 323 1121 729 1463 1250 271 413 398 819 398 1280 0
		253 -25 435 -95 678 -138 479 -445 963 -900 1418 -333 332 -637 551 -1030 739
		-417 201 -901 324 -1334 340 -75 3 -162 7 -192 9 -30 1 -129 -1 -220 -5z"/>
</svg>
