<?xml version="1.0" standalone="no"?>
<!DOCTYPE svg PUBLIC "-//W3C//DTD SVG 20010904//EN" "http://www.w3.org/TR/2001/REC-SVG-20010904/DTD/svg10.dtd">
<svg version="1.0" xmlns="http://www.w3.org/2000/svg" width="919" height="763" viewBox="0 0 919 763">
	<linearGradient id="linear-gradient" x1="0%" y1="0%" x2="30%" y2="100%">
		<stop offset="20%" stop-color="#ff8f5a"/>
		<stop offset="100%" stop-color="#ff2f96"/>
	</linearGradient>	
	<path transform="translate(0.000000,763.000000) scale(0.100000,-0.100000)" fill="url(#linear-gradient)"
		d="M5270 7609 c-720 -74 -1496 -393 -2160 -888 -329 -245 -705 -596
		-1048 -976 -74 -82 -156 -173 -181 -201 -196 -218 -635 -781 -836 -1074 -158
		-229 -189 -276 -277 -415 -281 -441 -510 -901 -633 -1270 -132 -396 -162 -774
		-86 -1072 57 -221 145 -393 288 -565 433 -520 1387 -903 2653 -1062 438 -56
		791 -77 1275 -77 897 0 1576 94 2210 306 388 129 682 273 1020 498 887 591
		1497 1496 1649 2447 23 144 26 170 35 355 30 627 -114 1255 -421 1835 -187
		354 -429 707 -669 975 -620 695 -1330 1086 -2144 1180 -142 16 -529 19 -675 4z"/>
</svg>